<svg width="338" height="338" viewBox="0 0 338 338" fill="none" xmlns="http://www.w3.org/2000/svg">
<g clip-path="url(#clip0)">
<path d="M168.537 0.00305176C75.594 0.00305176 0 75.606 0 168.54C0 261.464 75.594 337.07 168.537 337.07C261.462 337.07 337.074 261.464 337.074 168.54C337.074 75.606 261.461 0.00305176 168.537 0.00305176ZM224.328 177.265L130.179 271.396C127.771 273.804 124.627 275.011 121.46 275.011C118.314 275.011 115.158 273.804 112.747 271.396C107.928 266.581 107.928 258.774 112.747 253.958L198.171 168.534L112.741 83.1061C107.922 78.2991 107.922 70.4961 112.741 65.6801C117.557 60.8581 125.36 60.8581 130.173 65.6801L224.316 159.814C229.143 164.634 229.143 172.437 224.328 177.265Z" fill="black"/>
</g>
<defs>
<clipPath id="clip0">
<rect width="337.074" height="337.073" fill="white"/>
</clipPath>
</defs>
</svg>
