<svg width="338" height="338" viewBox="0 0 338 338" fill="none" xmlns="http://www.w3.org/2000/svg">
<g clip-path="url(#clip0)">
<path d="M168.537 337.07C261.48 337.07 337.074 261.467 337.074 168.533C337.074 75.6091 261.48 0.00305176 168.537 0.00305176C75.6122 0.00305176 0.000213623 75.6091 0.000213623 168.533C0.000213623 261.467 75.6132 337.07 168.537 337.07ZM112.746 159.808L206.895 65.6771C209.303 63.2691 212.447 62.0621 215.614 62.0621C218.76 62.0621 221.916 63.2691 224.327 65.6771C229.146 70.4921 229.146 78.2991 224.327 83.1151L138.903 168.539L224.333 253.967C229.152 258.774 229.152 266.577 224.333 271.393C219.517 276.215 211.714 276.215 206.901 271.393L112.758 177.259C107.931 172.439 107.931 164.636 112.746 159.808Z" fill="black"/>
</g>
<defs>
<clipPath id="clip0">
<rect width="337.074" height="337.073" fill="white"/>
</clipPath>
</defs>
</svg>
