<svg height="480pt" viewBox="0 0 480 480" width="480pt" xmlns="http://www.w3.org/2000/svg"><g fill="#71d2f6"><path d="m439.960938 120h-64v64h-272v-64h-64l-32 96h464zm0 0"/><path d="m31.960938 472h40v-144h128v144h248v-224h-416zm192-184h192v144h-192zm0 0"/><path d="m375.960938 184v-176h-.640626l-135.359374 88-128.640626-88h-7.359374v176zm0 0"/><path d="m447.960938 248h24v-32h-464v32zm0 0"/></g><path d="m479.960938 215.785156c-.011719-.785156-.136719-1.566406-.375-2.3125l-32-96c-1.09375-3.28125-4.167969-5.488281-7.625-5.472656h-56v-104c0-4.417969-3.582032-8-8-8h-272c-4.417969 0-8 3.582031-8 8v104h-56c-3.441407.003906-6.496094 2.207031-7.585938 5.472656l-32 96c-.238281.746094-.3671875 1.527344-.375 2.3125v.214844 32c0 4.417969 3.582031 8 8 8h15.960938v216c0 4.417969 3.582031 8 8 8h416c4.417968 0 8-3.582031 8-8v-216h16c4.417968 0 8-3.582031 8-8v-32c0-.070312 0-.136719 0-.214844zm-368-197.65625 123.488281 84.472656c2.664062 1.820313 6.164062 1.859376 8.871093.101563l123.640626-80.375v153.671875h-256zm25.222656-2.128906h211.152344l-108.265626 70.398438zm-91.457032 112h50.234376v56c0 4.417969 3.582031 8 8 8h272c4.417968 0 8-3.582031 8-8v-56h50.230468l26.664063 80h-441.792969zm82.234376 280v56h-48v-128h48v56h-16v16zm16 56v-56h16v-16h-16v-56h48v128zm296 0h-232v-136c0-4.417969-3.582032-8-8-8h-128c-4.417969 0-8 3.582031-8 8v136h-24v-208h400zm24-224h-448v-16h448zm0 0" fill="#006d95"/><path d="m223.960938 440h192c4.417968 0 8-3.582031 8-8v-144c0-4.417969-3.582032-8-8-8h-192c-4.417969 0-8 3.582031-8 8v144c0 4.417969 3.582031 8 8 8zm8-144h176v128h-176zm0 0" fill="#006d95"/><path d="m370.304688 317.660156 11.3125-11.316406 15.996093 16-11.3125 11.3125zm0 0" fill="#006d95"/><path d="m346.304688 325.65625 11.3125-11.3125 32 32-11.3125 11.3125zm0 0" fill="#006d95"/></svg>