<svg width="350" height="250" viewBox="0 0 350 250" fill="none" xmlns="http://www.w3.org/2000/svg">
<rect width="350" height="250" rx="10" fill="#FFE500"/>
<g clip-path="url(#clip0)">
<path d="M143.068 97.4062L131.805 98.2094C128.671 98.433 125.88 99.9492 124.147 102.369L111.158 120.503C109.844 122.338 109.635 124.635 110.599 126.647C111.563 128.658 113.545 130.061 115.9 130.397L126.212 131.872C128.624 120.054 134.399 108.266 143.068 97.4062V97.4062Z" fill="black"/>
<path d="M167.556 170.034L169.153 179.553C169.518 181.727 171.037 183.557 173.216 184.447C174.123 184.817 175.082 185 176.037 185C177.379 185 178.711 184.639 179.872 183.93L199.517 171.941C202.139 170.341 203.781 167.764 204.023 164.871L204.893 154.475C193.128 162.477 180.358 167.808 167.556 170.034V170.034Z" fill="black"/>
<path d="M163.677 163.437C164.035 163.437 164.395 163.409 164.754 163.354C170.118 162.526 175.287 161.132 180.219 159.307L137.834 120.183C135.857 124.734 134.346 129.506 133.449 134.457C133.096 136.409 133.805 138.397 135.321 139.796L158.97 161.627C160.229 162.788 161.927 163.437 163.677 163.437Z" fill="black"/>
<path d="M229.634 118.203C240.006 99.694 240.39 80.1342 239.848 70.9608C239.663 67.8176 236.948 65.3117 233.542 65.1404C231.924 65.0588 230.007 65 227.845 65C216.733 65 199.15 66.5537 182.363 74.5685C169.022 80.9381 151.529 94.9632 141.208 113.395C141.33 113.483 141.449 113.576 141.562 113.68L187.264 155.867C187.377 155.97 187.477 156.08 187.573 156.192C207.54 146.665 222.734 130.518 229.634 118.203V118.203ZM185.587 90.3686C193.011 83.5152 205.092 83.5145 212.517 90.3686C216.114 93.6884 218.095 98.1029 218.095 102.798C218.095 107.493 216.114 111.908 212.517 115.228C208.806 118.654 203.928 120.367 199.052 120.368C194.175 120.368 189.3 118.655 185.587 115.228C181.99 111.908 180.009 107.493 180.009 102.798C180.009 98.1029 181.99 93.6884 185.587 90.3686V90.3686Z" fill="black"/>
<path d="M190.973 110.256C195.428 114.368 202.677 114.368 207.131 110.256C209.289 108.264 210.478 105.615 210.478 102.798C210.478 99.9809 209.289 97.3324 207.131 95.3405C204.904 93.2843 201.978 92.2563 199.052 92.2563C196.126 92.2563 193.2 93.2843 190.973 95.3405C188.815 97.3324 187.626 99.9809 187.626 102.798C187.626 105.615 188.815 108.264 190.973 110.256Z" fill="black"/>
<path d="M113.886 163.891C114.861 163.891 115.836 163.548 116.579 162.861L129.014 151.383C130.501 150.01 130.501 147.785 129.014 146.412C127.526 145.039 125.115 145.039 123.627 146.412L111.193 157.89C109.706 159.263 109.706 161.488 111.193 162.861C111.937 163.548 112.911 163.891 113.886 163.891Z" fill="black"/>
<path d="M140.409 156.931C138.922 155.558 136.51 155.558 135.023 156.931L111.116 178.998C109.629 180.371 109.629 182.597 111.116 183.97C111.86 184.656 112.835 185 113.81 185C114.784 185 115.759 184.656 116.503 183.97L140.409 161.902C141.896 160.529 141.896 158.304 140.409 156.931V156.931Z" fill="black"/>
<path d="M146.418 167.449L133.984 178.927C132.496 180.3 132.496 182.526 133.984 183.899C134.728 184.585 135.702 184.929 136.677 184.929C137.651 184.929 138.626 184.586 139.37 183.899L151.804 172.421C153.292 171.048 153.292 168.822 151.804 167.449C150.317 166.076 147.906 166.076 146.418 167.449Z" fill="black"/>
</g>
<defs>
<clipPath id="clip0">
<rect width="130" height="120" fill="white" transform="translate(110 65)"/>
</clipPath>
</defs>
</svg>
