<svg width="350" height="250" viewBox="0 0 350 250" fill="none" xmlns="http://www.w3.org/2000/svg">
<rect width="350" height="250" rx="10" fill="#FFE500"/>
<path d="M117.675 120.091H162.57C162.696 120.091 162.799 119.994 162.799 119.876C162.799 115.477 158.982 111.899 154.291 111.899H117.675C115.266 111.899 113.307 113.737 113.307 115.995C113.307 118.253 115.266 120.091 117.675 120.091V120.091Z" fill="black"/>
<path d="M132.965 141.242C127.296 141.242 122.141 143.28 118.448 146.98C115.084 150.35 113.098 154.882 112.774 159.865C112.723 160.655 113.393 161.322 114.236 161.322H154.111C154.111 150.062 144.822 141.242 132.965 141.242V141.242Z" fill="black"/>
<path d="M214.289 126.604L210.467 109.617C209.767 109.698 209.055 109.745 208.331 109.745H193.374C191.28 112.579 190.051 116.018 190.051 119.727V141.41C190.051 143.625 188.136 145.421 185.773 145.421H169.356C167.461 145.421 165.791 144.252 165.253 142.548L160.57 127.71H122.507C116.119 131.408 111.475 137.501 110 144.653C115.071 137.869 123.308 133.622 132.965 133.622C149.38 133.622 162.238 145.789 162.238 161.322C162.238 161.353 162.234 161.383 162.233 161.414H198.943C199.993 153.958 204.839 147.609 211.597 144.138L214.289 126.604Z" fill="black"/>
<path d="M168.219 93.5698C168.219 95.6741 170.039 97.3801 172.284 97.3801H181.455V89.7598H172.284C170.039 89.7598 168.219 91.4655 168.219 93.5698V93.5698Z" fill="black"/>
<path d="M217.454 93.7367C217.552 88.9405 213.267 85.0146 208.151 85.0146H191.327C190.364 85.0146 189.583 85.7469 189.583 86.6502V100.489C189.583 101.393 190.364 102.125 191.327 102.125H208.331C213.311 102.125 217.359 98.3848 217.454 93.7367V93.7367Z" fill="black"/>
<path d="M238.071 145.825C238.245 145.945 238.453 146.012 238.668 146.012C239.245 146.012 239.711 145.559 239.676 145.019C239.128 136.542 231.591 130.269 222.375 130.269H221.938L220.214 141.5C221.266 141.371 222.339 141.304 223.428 141.304C228.905 141.304 233.971 142.986 238.071 145.825V145.825Z" fill="black"/>
<path d="M133.248 180C140.818 180 147.198 175.24 149.18 168.74H117.317C119.299 175.24 125.679 180 133.248 180V180Z" fill="black"/>
<path d="M119.561 93.2339H156.009C158.254 93.2339 160.073 91.5279 160.073 89.4236C160.073 87.3193 158.254 85.6133 156.009 85.6133H119.561C117.316 85.6133 115.497 87.3193 115.497 89.4236C115.497 91.5279 117.316 93.2339 119.561 93.2339Z" fill="black"/>
<path d="M133.062 77.6206H169.825C172.069 77.6206 173.889 75.9146 173.889 73.8103C173.889 71.706 172.069 70 169.825 70H133.062C130.818 70 128.998 71.706 128.998 73.8103C128.998 75.9146 130.818 77.6206 133.062 77.6206V77.6206Z" fill="black"/>
<path d="M223.427 148.924C221.828 148.924 220.284 149.141 218.821 149.537C218.821 149.537 216.266 150.139 214.053 151.65C209.706 154.451 206.855 159.143 206.855 164.462C206.855 173.043 214.274 180 223.427 180C232.58 180 240 173.043 240 164.462C240 155.88 232.58 148.924 223.427 148.924ZM223.427 168.297C221.168 168.297 219.336 166.58 219.336 164.462C219.336 162.343 221.168 160.626 223.427 160.626C225.687 160.626 227.518 162.343 227.518 164.462C227.518 166.58 225.687 168.297 223.427 168.297Z" fill="black"/>
</svg>
