<svg width="350" height="250" viewBox="0 0 350 250" fill="none" xmlns="http://www.w3.org/2000/svg">
<rect width="350" height="250" rx="10" fill="#FFE500"/>
<path d="M249.344 126.525C249.344 126.496 249.343 126.467 249.342 126.438C249.302 124.5 247.805 122.955 245.919 122.955H245.02L231.14 95.0385C230.554 93.8597 229.386 93.1257 228.097 93.1253L204.398 93.1202L205.302 85.6652C205.56 82.686 204.675 79.873 202.809 77.7439C200.946 75.6191 198.345 74.4487 195.485 74.4487H121.934C120.085 74.4487 118.514 75.9372 118.337 77.8563L117.6 83.9984H159.506C162.227 83.9984 164.375 86.2931 164.304 89.1236C164.233 91.9542 161.969 94.2488 159.248 94.2488H145.27C145.273 94.2562 145.275 94.2635 145.278 94.2704H104.23C102.306 94.2704 100.705 95.8929 100.655 97.8947C100.604 99.8964 102.123 101.519 104.048 101.519H158.39C160.912 101.923 162.797 104.192 162.727 106.94C162.651 109.957 160.25 112.404 157.355 112.429H119.89C117.946 112.429 116.33 114.068 116.279 116.09C116.228 118.112 117.762 119.751 119.706 119.751H156.729C159.289 120.122 161.211 122.409 161.141 125.183C161.065 128.216 158.639 130.675 155.724 130.675H113.25V130.679H109.681C107.737 130.679 106.12 132.318 106.069 134.34C106.018 136.361 107.552 138 109.496 138H112.576L111.372 151.113C111.113 154.092 111.999 156.905 113.866 159.034C115.728 161.159 118.329 162.329 121.189 162.329H123.846C125.112 169.861 131.376 175.552 139.039 175.552C146.701 175.552 153.252 169.861 154.896 162.329H188.054C190.735 162.329 193.273 161.263 195.263 159.517C197.083 161.334 199.496 162.329 202.131 162.329H202.676C203.942 169.861 210.206 175.552 217.869 175.552C225.531 175.552 232.082 169.861 233.726 162.329H235.915C241.616 162.329 246.673 157.508 247.187 151.581L249.331 126.868C249.334 126.835 249.333 126.802 249.335 126.768C249.338 126.717 249.345 126.668 249.346 126.616C249.347 126.586 249.344 126.556 249.344 126.525ZM139.223 168.23C134.372 168.23 130.528 164.125 130.655 159.078C130.782 154.031 134.833 149.926 139.684 149.926C144.535 149.926 148.378 154.031 148.251 159.078C148.124 164.125 144.074 168.23 139.223 168.23ZM218.053 168.23C213.202 168.23 209.359 164.125 209.485 159.078C209.612 154.031 213.663 149.926 218.514 149.926C223.365 149.926 227.209 154.031 227.081 159.078C226.954 164.125 222.904 168.23 218.053 168.23ZM240.175 151.113C239.992 153.224 238.126 155.008 236.1 155.008H233.732C232.165 147.886 226.08 142.604 218.698 142.604C211.316 142.604 204.965 147.886 203.04 155.008H202.315C201.42 155.008 200.622 154.659 200.067 154.025C199.507 153.387 199.244 152.519 199.325 151.581L203.763 100.442L213.954 100.444L212.339 119.06C212.08 122.039 212.965 124.852 214.831 126.981C216.694 129.107 219.295 130.278 222.156 130.278H241.982L240.175 151.113Z" fill="black"/>
</svg>
