<svg width="66" height="14" viewBox="0 0 66 14" fill="none" xmlns="http://www.w3.org/2000/svg">
<path d="M10.5 1.16675H8.75004C7.97649 1.16675 7.23463 1.47404 6.68765 2.02102C6.14067 2.568 5.83337 3.30987 5.83337 4.08342V5.83342H4.08337V8.16675H5.83337V12.8334H8.16671V8.16675H9.91671L10.5 5.83342H8.16671V4.08342C8.16671 3.92871 8.22817 3.78033 8.33756 3.67094C8.44696 3.56154 8.59533 3.50008 8.75004 3.50008H10.5V1.16675Z" fill="white"/>
<path d="M35.3333 4.66675C36.2615 4.66675 37.1517 5.0355 37.8081 5.69187C38.4645 6.34825 38.8333 7.23849 38.8333 8.16675V12.2501H36.4999V8.16675C36.4999 7.85733 36.377 7.56058 36.1582 7.34179C35.9394 7.123 35.6427 7.00008 35.3333 7.00008C35.0238 7.00008 34.7271 7.123 34.5083 7.34179C34.2895 7.56058 34.1666 7.85733 34.1666 8.16675V12.2501H31.8333V8.16675C31.8333 7.23849 32.202 6.34825 32.8584 5.69187C33.5148 5.0355 34.405 4.66675 35.3333 4.66675Z" fill="white"/>
<path d="M27.1666 5.25H29.5V12.25H27.1666V5.25Z" fill="white"/>
<path d="M28.3333 3.50008C28.9776 3.50008 29.5 2.97775 29.5 2.33341C29.5 1.68908 28.9776 1.16675 28.3333 1.16675C27.689 1.16675 27.1666 1.68908 27.1666 2.33341C27.1666 2.97775 27.689 3.50008 28.3333 3.50008Z" fill="white"/>
<path d="M65.4167 1.75001C64.8581 2.14403 64.2396 2.4454 63.585 2.64251C63.2337 2.23855 62.7668 1.95224 62.2475 1.8223C61.7281 1.69235 61.1814 1.72504 60.6813 1.91594C60.1811 2.10684 59.7516 2.44674 59.4509 2.88967C59.1503 3.33261 58.9929 3.8572 59 4.39251V4.97584C57.9749 5.00242 56.9591 4.77506 56.0431 4.31402C55.1271 3.85297 54.3394 3.17254 53.75 2.33334C53.75 2.33334 51.4167 7.58334 56.6667 9.91667C55.4653 10.7322 54.0342 11.141 52.5834 11.0833C57.8334 14 64.25 11.0833 64.25 4.37501C64.2495 4.21252 64.2339 4.05044 64.2034 3.89084C64.7987 3.30371 65.2189 2.56242 65.4167 1.75001Z" fill="white"/>
</svg>
