<svg width="110" height="176" viewBox="0 0 110 176" fill="none" xmlns="http://www.w3.org/2000/svg">
<path d="M25 94.4167V94.4375V94.4167ZM25 109V109.021V109ZM25 123.583V123.604V123.583ZM25 96.5C23.8494 96.5 22.9167 95.5673 22.9167 94.4167C22.9167 93.2661 23.8494 92.3333 25 92.3333C26.1506 92.3333 27.0834 93.2661 27.0834 94.4167C27.0834 95.5673 26.1506 96.5 25 96.5ZM25 111.083C23.8494 111.083 22.9167 110.151 22.9167 109C22.9167 107.849 23.8494 106.917 25 106.917C26.1506 106.917 27.0834 107.849 27.0834 109C27.0834 110.151 26.1506 111.083 25 111.083ZM25 125.667C23.8494 125.667 22.9167 124.734 22.9167 123.583C22.9167 122.433 23.8494 121.5 25 121.5C26.1506 121.5 27.0834 122.433 27.0834 123.583C27.0834 124.734 26.1506 125.667 25 125.667Z" stroke="#4A5568" stroke-width="2" stroke-linecap="round" stroke-linejoin="round"/>
<path d="M40 94.4167V94.4375V94.4167ZM40 109V109.021V109ZM40 123.583V123.604V123.583ZM40 96.5C38.8494 96.5 37.9167 95.5673 37.9167 94.4167C37.9167 93.2661 38.8494 92.3333 40 92.3333C41.1506 92.3333 42.0834 93.2661 42.0834 94.4167C42.0834 95.5673 41.1506 96.5 40 96.5ZM40 111.083C38.8494 111.083 37.9167 110.151 37.9167 109C37.9167 107.849 38.8494 106.917 40 106.917C41.1506 106.917 42.0834 107.849 42.0834 109C42.0834 110.151 41.1506 111.083 40 111.083ZM40 125.667C38.8494 125.667 37.9167 124.734 37.9167 123.583C37.9167 122.433 38.8494 121.5 40 121.5C41.1506 121.5 42.0834 122.433 42.0834 123.583C42.0834 124.734 41.1506 125.667 40 125.667Z" stroke="#4A5568" stroke-width="2" stroke-linecap="round" stroke-linejoin="round"/>
<path d="M55 94.4167V94.4375V94.4167ZM55 109V109.021V109ZM55 123.583V123.604V123.583ZM55 96.5C53.8494 96.5 52.9167 95.5673 52.9167 94.4167C52.9167 93.2661 53.8494 92.3333 55 92.3333C56.1506 92.3333 57.0834 93.2661 57.0834 94.4167C57.0834 95.5673 56.1506 96.5 55 96.5ZM55 111.083C53.8494 111.083 52.9167 110.151 52.9167 109C52.9167 107.849 53.8494 106.917 55 106.917C56.1506 106.917 57.0834 107.849 57.0834 109C57.0834 110.151 56.1506 111.083 55 111.083ZM55 125.667C53.8494 125.667 52.9167 124.734 52.9167 123.583C52.9167 122.433 53.8494 121.5 55 121.5C56.1506 121.5 57.0834 122.433 57.0834 123.583C57.0834 124.734 56.1506 125.667 55 125.667Z" stroke="#4A5568" stroke-width="2" stroke-linecap="round" stroke-linejoin="round"/>
<path d="M70 94.4167V94.4375V94.4167ZM70 109V109.021V109ZM70 123.583V123.604V123.583ZM70 96.5C68.8494 96.5 67.9167 95.5673 67.9167 94.4167C67.9167 93.2661 68.8494 92.3333 70 92.3333C71.1506 92.3333 72.0834 93.2661 72.0834 94.4167C72.0834 95.5673 71.1506 96.5 70 96.5ZM70 111.083C68.8494 111.083 67.9167 110.151 67.9167 109C67.9167 107.849 68.8494 106.917 70 106.917C71.1506 106.917 72.0834 107.849 72.0834 109C72.0834 110.151 71.1506 111.083 70 111.083ZM70 125.667C68.8494 125.667 67.9167 124.734 67.9167 123.583C67.9167 122.433 68.8494 121.5 70 121.5C71.1506 121.5 72.0834 122.433 72.0834 123.583C72.0834 124.734 71.1506 125.667 70 125.667Z" stroke="#4A5568" stroke-width="2" stroke-linecap="round" stroke-linejoin="round"/>
<path d="M85 94.4167V94.4375V94.4167ZM85 109V109.021V109ZM85 123.583V123.604V123.583ZM85 96.5C83.8494 96.5 82.9167 95.5673 82.9167 94.4167C82.9167 93.2661 83.8494 92.3333 85 92.3333C86.1506 92.3333 87.0834 93.2661 87.0834 94.4167C87.0834 95.5673 86.1506 96.5 85 96.5ZM85 111.083C83.8494 111.083 82.9167 110.151 82.9167 109C82.9167 107.849 83.8494 106.917 85 106.917C86.1506 106.917 87.0834 107.849 87.0834 109C87.0834 110.151 86.1506 111.083 85 111.083ZM85 125.667C83.8494 125.667 82.9167 124.734 82.9167 123.583C82.9167 122.433 83.8494 121.5 85 121.5C86.1506 121.5 87.0834 122.433 87.0834 123.583C87.0834 124.734 86.1506 125.667 85 125.667Z" stroke="#4A5568" stroke-width="2" stroke-linecap="round" stroke-linejoin="round"/>
<path d="M25 52.4167V52.4375V52.4167ZM25 67V67.0208V67ZM25 81.5833V81.6042V81.5833ZM25 54.5C23.8494 54.5 22.9167 53.5673 22.9167 52.4167C22.9167 51.2661 23.8494 50.3333 25 50.3333C26.1506 50.3333 27.0834 51.2661 27.0834 52.4167C27.0834 53.5673 26.1506 54.5 25 54.5ZM25 69.0833C23.8494 69.0833 22.9167 68.1506 22.9167 67C22.9167 65.8494 23.8494 64.9167 25 64.9167C26.1506 64.9167 27.0834 65.8494 27.0834 67C27.0834 68.1506 26.1506 69.0833 25 69.0833ZM25 83.6667C23.8494 83.6667 22.9167 82.734 22.9167 81.5833C22.9167 80.4327 23.8494 79.5 25 79.5C26.1506 79.5 27.0834 80.4327 27.0834 81.5833C27.0834 82.734 26.1506 83.6667 25 83.6667Z" stroke="#4A5568" stroke-width="2" stroke-linecap="round" stroke-linejoin="round"/>
<path d="M40 52.4167V52.4375V52.4167ZM40 67V67.0208V67ZM40 81.5833V81.6042V81.5833ZM40 54.5C38.8494 54.5 37.9167 53.5673 37.9167 52.4167C37.9167 51.2661 38.8494 50.3333 40 50.3333C41.1506 50.3333 42.0834 51.2661 42.0834 52.4167C42.0834 53.5673 41.1506 54.5 40 54.5ZM40 69.0833C38.8494 69.0833 37.9167 68.1506 37.9167 67C37.9167 65.8494 38.8494 64.9167 40 64.9167C41.1506 64.9167 42.0834 65.8494 42.0834 67C42.0834 68.1506 41.1506 69.0833 40 69.0833ZM40 83.6667C38.8494 83.6667 37.9167 82.734 37.9167 81.5833C37.9167 80.4327 38.8494 79.5 40 79.5C41.1506 79.5 42.0834 80.4327 42.0834 81.5833C42.0834 82.734 41.1506 83.6667 40 83.6667Z" stroke="#4A5568" stroke-width="2" stroke-linecap="round" stroke-linejoin="round"/>
<path d="M55 52.4167V52.4375V52.4167ZM55 67V67.0208V67ZM55 81.5833V81.6042V81.5833ZM55 54.5C53.8494 54.5 52.9167 53.5673 52.9167 52.4167C52.9167 51.2661 53.8494 50.3333 55 50.3333C56.1506 50.3333 57.0834 51.2661 57.0834 52.4167C57.0834 53.5673 56.1506 54.5 55 54.5ZM55 69.0833C53.8494 69.0833 52.9167 68.1506 52.9167 67C52.9167 65.8494 53.8494 64.9167 55 64.9167C56.1506 64.9167 57.0834 65.8494 57.0834 67C57.0834 68.1506 56.1506 69.0833 55 69.0833ZM55 83.6667C53.8494 83.6667 52.9167 82.734 52.9167 81.5833C52.9167 80.4327 53.8494 79.5 55 79.5C56.1506 79.5 57.0834 80.4327 57.0834 81.5833C57.0834 82.734 56.1506 83.6667 55 83.6667Z" stroke="#4A5568" stroke-width="2" stroke-linecap="round" stroke-linejoin="round"/>
<path d="M70 52.4167V52.4375V52.4167ZM70 67V67.0208V67ZM70 81.5833V81.6042V81.5833ZM70 54.5C68.8494 54.5 67.9167 53.5673 67.9167 52.4167C67.9167 51.2661 68.8494 50.3333 70 50.3333C71.1506 50.3333 72.0834 51.2661 72.0834 52.4167C72.0834 53.5673 71.1506 54.5 70 54.5ZM70 69.0833C68.8494 69.0833 67.9167 68.1506 67.9167 67C67.9167 65.8494 68.8494 64.9167 70 64.9167C71.1506 64.9167 72.0834 65.8494 72.0834 67C72.0834 68.1506 71.1506 69.0833 70 69.0833ZM70 83.6667C68.8494 83.6667 67.9167 82.734 67.9167 81.5833C67.9167 80.4327 68.8494 79.5 70 79.5C71.1506 79.5 72.0834 80.4327 72.0834 81.5833C72.0834 82.734 71.1506 83.6667 70 83.6667Z" stroke="#4A5568" stroke-width="2" stroke-linecap="round" stroke-linejoin="round"/>
<path d="M85 52.4167V52.4375V52.4167ZM85 67V67.0208V67ZM85 81.5833V81.6042V81.5833ZM85 54.5C83.8494 54.5 82.9167 53.5673 82.9167 52.4167C82.9167 51.2661 83.8494 50.3333 85 50.3333C86.1506 50.3333 87.0834 51.2661 87.0834 52.4167C87.0834 53.5673 86.1506 54.5 85 54.5ZM85 69.0833C83.8494 69.0833 82.9167 68.1506 82.9167 67C82.9167 65.8494 83.8494 64.9167 85 64.9167C86.1506 64.9167 87.0834 65.8494 87.0834 67C87.0834 68.1506 86.1506 69.0833 85 69.0833ZM85 83.6667C83.8494 83.6667 82.9167 82.734 82.9167 81.5833C82.9167 80.4327 83.8494 79.5 85 79.5C86.1506 79.5 87.0834 80.4327 87.0834 81.5833C87.0834 82.734 86.1506 83.6667 85 83.6667Z" stroke="#4A5568" stroke-width="2" stroke-linecap="round" stroke-linejoin="round"/>
<path d="M25 10.4167V10.4375V10.4167ZM25 25V25.0208V25ZM25 39.5833V39.6042V39.5833ZM25 12.5C23.8494 12.5 22.9167 11.5673 22.9167 10.4167C22.9167 9.26609 23.8494 8.33334 25 8.33334C26.1506 8.33334 27.0834 9.26609 27.0834 10.4167C27.0834 11.5673 26.1506 12.5 25 12.5ZM25 27.0833C23.8494 27.0833 22.9167 26.1506 22.9167 25C22.9167 23.8494 23.8494 22.9167 25 22.9167C26.1506 22.9167 27.0834 23.8494 27.0834 25C27.0834 26.1506 26.1506 27.0833 25 27.0833ZM25 41.6667C23.8494 41.6667 22.9167 40.734 22.9167 39.5833C22.9167 38.4327 23.8494 37.5 25 37.5C26.1506 37.5 27.0834 38.4327 27.0834 39.5833C27.0834 40.734 26.1506 41.6667 25 41.6667Z" stroke="#4A5568" stroke-width="2" stroke-linecap="round" stroke-linejoin="round"/>
<path d="M40 10.4167V10.4375V10.4167ZM40 25V25.0208V25ZM40 39.5833V39.6042V39.5833ZM40 12.5C38.8494 12.5 37.9167 11.5673 37.9167 10.4167C37.9167 9.26609 38.8494 8.33334 40 8.33334C41.1506 8.33334 42.0834 9.26609 42.0834 10.4167C42.0834 11.5673 41.1506 12.5 40 12.5ZM40 27.0833C38.8494 27.0833 37.9167 26.1506 37.9167 25C37.9167 23.8494 38.8494 22.9167 40 22.9167C41.1506 22.9167 42.0834 23.8494 42.0834 25C42.0834 26.1506 41.1506 27.0833 40 27.0833ZM40 41.6667C38.8494 41.6667 37.9167 40.734 37.9167 39.5833C37.9167 38.4327 38.8494 37.5 40 37.5C41.1506 37.5 42.0834 38.4327 42.0834 39.5833C42.0834 40.734 41.1506 41.6667 40 41.6667Z" stroke="#4A5568" stroke-width="2" stroke-linecap="round" stroke-linejoin="round"/>
<path d="M55 10.4167V10.4375V10.4167ZM55 25V25.0208V25ZM55 39.5833V39.6042V39.5833ZM55 12.5C53.8494 12.5 52.9167 11.5673 52.9167 10.4167C52.9167 9.26609 53.8494 8.33334 55 8.33334C56.1506 8.33334 57.0834 9.26609 57.0834 10.4167C57.0834 11.5673 56.1506 12.5 55 12.5ZM55 27.0833C53.8494 27.0833 52.9167 26.1506 52.9167 25C52.9167 23.8494 53.8494 22.9167 55 22.9167C56.1506 22.9167 57.0834 23.8494 57.0834 25C57.0834 26.1506 56.1506 27.0833 55 27.0833ZM55 41.6667C53.8494 41.6667 52.9167 40.734 52.9167 39.5833C52.9167 38.4327 53.8494 37.5 55 37.5C56.1506 37.5 57.0834 38.4327 57.0834 39.5833C57.0834 40.734 56.1506 41.6667 55 41.6667Z" stroke="#4A5568" stroke-width="2" stroke-linecap="round" stroke-linejoin="round"/>
<path d="M70 10.4167V10.4375V10.4167ZM70 25V25.0208V25ZM70 39.5833V39.6042V39.5833ZM70 12.5C68.8494 12.5 67.9167 11.5673 67.9167 10.4167C67.9167 9.26609 68.8494 8.33334 70 8.33334C71.1506 8.33334 72.0834 9.26609 72.0834 10.4167C72.0834 11.5673 71.1506 12.5 70 12.5ZM70 27.0833C68.8494 27.0833 67.9167 26.1506 67.9167 25C67.9167 23.8494 68.8494 22.9167 70 22.9167C71.1506 22.9167 72.0834 23.8494 72.0834 25C72.0834 26.1506 71.1506 27.0833 70 27.0833ZM70 41.6667C68.8494 41.6667 67.9167 40.734 67.9167 39.5833C67.9167 38.4327 68.8494 37.5 70 37.5C71.1506 37.5 72.0834 38.4327 72.0834 39.5833C72.0834 40.734 71.1506 41.6667 70 41.6667Z" stroke="#4A5568" stroke-width="2" stroke-linecap="round" stroke-linejoin="round"/>
<path d="M85 10.4167V10.4375V10.4167ZM85 25V25.0208V25ZM85 39.5833V39.6042V39.5833ZM85 12.5C83.8494 12.5 82.9167 11.5673 82.9167 10.4167C82.9167 9.26609 83.8494 8.33334 85 8.33334C86.1506 8.33334 87.0834 9.26609 87.0834 10.4167C87.0834 11.5673 86.1506 12.5 85 12.5ZM85 27.0833C83.8494 27.0833 82.9167 26.1506 82.9167 25C82.9167 23.8494 83.8494 22.9167 85 22.9167C86.1506 22.9167 87.0834 23.8494 87.0834 25C87.0834 26.1506 86.1506 27.0833 85 27.0833ZM85 41.6667C83.8494 41.6667 82.9167 40.734 82.9167 39.5833C82.9167 38.4327 83.8494 37.5 85 37.5C86.1506 37.5 87.0834 38.4327 87.0834 39.5833C87.0834 40.734 86.1506 41.6667 85 41.6667Z" stroke="#4A5568" stroke-width="2" stroke-linecap="round" stroke-linejoin="round"/>
<path d="M25 136.417V136.438V136.417ZM25 151V151.021V151ZM25 165.583V165.604V165.583ZM25 138.5C23.8494 138.5 22.9167 137.567 22.9167 136.417C22.9167 135.266 23.8494 134.333 25 134.333C26.1506 134.333 27.0834 135.266 27.0834 136.417C27.0834 137.567 26.1506 138.5 25 138.5ZM25 153.083C23.8494 153.083 22.9167 152.151 22.9167 151C22.9167 149.849 23.8494 148.917 25 148.917C26.1506 148.917 27.0834 149.849 27.0834 151C27.0834 152.151 26.1506 153.083 25 153.083ZM25 167.667C23.8494 167.667 22.9167 166.734 22.9167 165.583C22.9167 164.433 23.8494 163.5 25 163.5C26.1506 163.5 27.0834 164.433 27.0834 165.583C27.0834 166.734 26.1506 167.667 25 167.667Z" stroke="#4A5568" stroke-width="2" stroke-linecap="round" stroke-linejoin="round"/>
<path d="M40 136.417V136.438V136.417ZM40 151V151.021V151ZM40 165.583V165.604V165.583ZM40 138.5C38.8494 138.5 37.9167 137.567 37.9167 136.417C37.9167 135.266 38.8494 134.333 40 134.333C41.1506 134.333 42.0834 135.266 42.0834 136.417C42.0834 137.567 41.1506 138.5 40 138.5ZM40 153.083C38.8494 153.083 37.9167 152.151 37.9167 151C37.9167 149.849 38.8494 148.917 40 148.917C41.1506 148.917 42.0834 149.849 42.0834 151C42.0834 152.151 41.1506 153.083 40 153.083ZM40 167.667C38.8494 167.667 37.9167 166.734 37.9167 165.583C37.9167 164.433 38.8494 163.5 40 163.5C41.1506 163.5 42.0834 164.433 42.0834 165.583C42.0834 166.734 41.1506 167.667 40 167.667Z" stroke="#4A5568" stroke-width="2" stroke-linecap="round" stroke-linejoin="round"/>
<path d="M55 136.417V136.438V136.417ZM55 151V151.021V151ZM55 165.583V165.604V165.583ZM55 138.5C53.8494 138.5 52.9167 137.567 52.9167 136.417C52.9167 135.266 53.8494 134.333 55 134.333C56.1506 134.333 57.0834 135.266 57.0834 136.417C57.0834 137.567 56.1506 138.5 55 138.5ZM55 153.083C53.8494 153.083 52.9167 152.151 52.9167 151C52.9167 149.849 53.8494 148.917 55 148.917C56.1506 148.917 57.0834 149.849 57.0834 151C57.0834 152.151 56.1506 153.083 55 153.083ZM55 167.667C53.8494 167.667 52.9167 166.734 52.9167 165.583C52.9167 164.433 53.8494 163.5 55 163.5C56.1506 163.5 57.0834 164.433 57.0834 165.583C57.0834 166.734 56.1506 167.667 55 167.667Z" stroke="#4A5568" stroke-width="2" stroke-linecap="round" stroke-linejoin="round"/>
<path d="M70 136.417V136.438V136.417ZM70 151V151.021V151ZM70 165.583V165.604V165.583ZM70 138.5C68.8494 138.5 67.9167 137.567 67.9167 136.417C67.9167 135.266 68.8494 134.333 70 134.333C71.1506 134.333 72.0834 135.266 72.0834 136.417C72.0834 137.567 71.1506 138.5 70 138.5ZM70 153.083C68.8494 153.083 67.9167 152.151 67.9167 151C67.9167 149.849 68.8494 148.917 70 148.917C71.1506 148.917 72.0834 149.849 72.0834 151C72.0834 152.151 71.1506 153.083 70 153.083ZM70 167.667C68.8494 167.667 67.9167 166.734 67.9167 165.583C67.9167 164.433 68.8494 163.5 70 163.5C71.1506 163.5 72.0834 164.433 72.0834 165.583C72.0834 166.734 71.1506 167.667 70 167.667Z" stroke="#4A5568" stroke-width="2" stroke-linecap="round" stroke-linejoin="round"/>
<path d="M85 136.417V136.438V136.417ZM85 151V151.021V151ZM85 165.583V165.604V165.583ZM85 138.5C83.8494 138.5 82.9167 137.567 82.9167 136.417C82.9167 135.266 83.8494 134.333 85 134.333C86.1506 134.333 87.0834 135.266 87.0834 136.417C87.0834 137.567 86.1506 138.5 85 138.5ZM85 153.083C83.8494 153.083 82.9167 152.151 82.9167 151C82.9167 149.849 83.8494 148.917 85 148.917C86.1506 148.917 87.0834 149.849 87.0834 151C87.0834 152.151 86.1506 153.083 85 153.083ZM85 167.667C83.8494 167.667 82.9167 166.734 82.9167 165.583C82.9167 164.433 83.8494 163.5 85 163.5C86.1506 163.5 87.0834 164.433 87.0834 165.583C87.0834 166.734 86.1506 167.667 85 167.667Z" stroke="#4A5568" stroke-width="2" stroke-linecap="round" stroke-linejoin="round"/>
</svg>
